PathFileType	4	(X/Y/Z)	Kaydara	
DataRate	CameraRate	NumFrames	NumMarkers	Units	OrigDataRate	OrigDataStartFrame	OrigNumFrames	
60.00	60.00	4	74	mm	60.00	581	227	
Frame#	Time	N_lasi			N_rasi			N_rpsi			N_lpsi			N_fneck			N_bneck			N_fhead			N_rhead			N_lhead			N_rshld			N_relbtop			N_relbext			N_relblow			N_rwrext			N_rwrtop			N_rwrlow			N_lshld			N_lelbext			N_lelbtop			N_lwrext			N_lwrtop			N_lwrlow			N_rtopleg			N_ltopleg			N_rkneefr			N_rkneebk			N_rkneeis			N_lkneefr			N_lknssbk			N_lkneeis			N_rankfr			N_rankis			N_rankbk			N_lankfr			N_lankbk			N_lankis			Z_lasi			Z_rasi			Z_rpsi			Z_lpsi			Z_fneck			Z_bneck			Z_fhead			Z_rhead			Z_lhead			Z_rshld			Z_relbtop			Z_relbext			Z_relblow			Z_rwrext			Z_rwrtop			Z_rwrlow			Z_lshld			Z_lelbext			Z_lelblow			Z_lelbtop			Z_lwrext			Z_lwrtop			Z_lwrlow			Z_rtopleg			Z_ltopleg			Z_rkneefr			Z_rkneebk			Z_rkneeis			Z_lkneefr			Z_lknssbk			Z_lkneeis			Z_rankfr			Z_rankis			Z_lankfr			Z_lankbk			Z_lankis			N_lelblow			Z_rankbk			
		X1	Y1	Z1	X2	Y2	Z2	X3	Y3	Z3	X4	Y4	Z4	X5	Y5	Z5	X6	Y6	Z6	X7	Y7	Z7	X8	Y8	Z8	X9	Y9	Z9	X10	Y10	Z10	X11	Y11	Z11	X12	Y12	Z12	X13	Y13	Z13	X14	Y14	Z14	X15	Y15	Z15	X16	Y16	Z16	X17	Y17	Z17	X18	Y18	Z18	X19	Y19	Z19	X20	Y20	Z20	X21	Y21	Z21	X22	Y22	Z22	X23	Y23	Z23	X24	Y24	Z24	X25	Y25	Z25	X26	Y26	Z26	X27	Y27	Z27	X28	Y28	Z28	X29	Y29	Z29	X30	Y30	Z30	X31	Y31	Z31	X32	Y32	Z32	X33	Y33	Z33	X34	Y34	Z34	X35	Y35	Z35	X36	Y36	Z36	X37	Y37	Z37	X38	Y38	Z38	X39	Y39	Z39	X40	Y40	Z40	X41	Y41	Z41	X42	Y42	Z42	X43	Y43	Z43	X44	Y44	Z44	X45	Y45	Z45	X46	Y46	Z46	X47	Y47	Z47	X48	Y48	Z48	X49	Y49	Z49	X50	Y50	Z50	X51	Y51	Z51	X52	Y52	Z52	X53	Y53	Z53	X54	Y54	Z54	X55	Y55	Z55	X56	Y56	Z56	X57	Y57	Z57	X58	Y58	Z58	X59	Y59	Z59	X60	Y60	Z60	X61	Y61	Z61	X62	Y62	Z62	X63	Y63	Z63	X64	Y64	Z64	X65	Y65	Z65	X66	Y66	Z66	X67	Y67	Z67	X68	Y68	Z68	X69	Y69	Z69	X70	Y70	Z70	X71	Y71	Z71	X72	Y72	Z72	X73	Y73	Z73	X74	Y74	Z74	

57	9.667	-251.08244	1011.72287	-938.53172	-245.15333	1009.67934	-1167.48116	-0.48560	1081.22742	-1140.93300	-40.70348	1071.21979	-902.97821	-270.09188	1468.77960	-1119.63257	-153.98394	1556.00922	-1105.53230	-404.10202	1649.44458	-1103.49686	-254.47275	1679.30939	-1195.56458	-249.49848	1683.67920	-1038.39081	-126.36201	1419.38828	-1304.97940	1.01080	1131.48750	-1315.97427	-7.67070	1123.29086	-1239.67651	-70.98833	1122.11388	-1310.01343	-12.30685	874.06174	-1337.79572	-57.55478	876.08978	-1360.82855	-85.74248	872.43034	-1324.17633	-239.87537	1482.48718	-885.00458	-296.88025	1155.03532	-843.70415	-244.05247	1209.09142	-776.20407	-239.26365	962.78374	-703.25691	-286.48968	952.40288	-726.48315	-266.94109	937.45918	-770.35576	-109.15277	896.42387	-1253.05359	-144.08256	875.45509	-848.94188	-304.13504	482.77885	-1201.37245	-188.18615	510.56061	-1220.17677	-223.04283	482.64706	-1116.61591	-188.39693	419.27502	-971.87515	-130.10460	491.44951	-905.76302	-110.90083	478.21396	-1033.10966	-241.34823	177.10623	-1210.08446	-195.07900	180.90506	-1152.70370	-176.97317	177.08460	-1231.43723	92.30612	257.04712	-877.59529	140.07678	312.44165	-929.91081	92.77007	256.89953	-948.17337	-430.75657	957.52815	782.31949	-330.24117	976.39008	993.07732	-520.06969	1034.89548	1049.63013	-590.45658	1023.97514	870.67230	-329.95449	1408.01056	833.49823	-416.45908	1491.72531	855.42572	-185.85501	1525.10178	833.98369	-343.78525	1609.90677	903.83423	-348.52890	1593.65311	774.66225	-344.79809	1370.80902	1089.11552	-397.68970	1086.20468	1182.63176	-403.66104	1071.06583	1113.54462	-319.12077	1106.46126	1155.95871	-292.38825	843.41545	1171.20071	-249.21356	854.75006	1163.97057	-254.33773	864.68391	1119.70238	-483.76160	1376.41174	677.40219	-497.09938	1048.75061	721.83571	-474.88789	1074.00230	634.16611	-543.14316	1039.33006	664.89998	-429.89250	847.50572	620.86292	-393.53416	865.88455	608.69614	-375.81848	868.62701	651.83517	-383.89019	874.29909	1096.86577	-530.63457	887.35039	773.52211	-227.68951	441.78150	1012.19574	-278.21436	442.29099	1086.81068	-318.20301	419.96326	977.53029	-509.10828	393.76209	891.49849	-584.10316	424.02370	854.79080	-569.21288	440.17174	973.06503	-139.22013	197.64877	1025.28877	-206.57118	161.56954	996.84250	-617.89761	167.09307	988.91106	-668.60970	162.85397	926.58401	-692.56706	179.96590	986.47034	-226.47938	1173.73604	-846.48705	-191.75489	159.58032	1069.21486 
58	9.683	-265.73034	1013.72330	-942.80571	-263.44301	1010.76546	-1172.32681	-18.42748	1084.15276	-1149.39384	-53.75403	1075.64255	-909.39384	-287.82866	1472.06223	-1121.45493	-171.24540	1559.34799	-1110.39650	-421.25500	1653.82996	-1102.20009	-273.65932	1682.34100	-1197.94441	-264.90635	1687.08679	-1040.93483	-149.39001	1422.49313	-1310.65414	-22.68929	1134.56902	-1326.33133	-28.93355	1126.74683	-1248.50220	-94.54713	1125.12650	-1317.85294	-35.84116	877.22618	-1347.51816	-82.14588	878.96553	-1368.26401	-108.56527	875.23628	-1330.39978	-250.57793	1485.15793	-887.06848	-305.32013	1159.86046	-839.97498	-250.62258	1215.02563	-772.66823	-241.75983	971.92657	-691.35284	-290.33503	960.65742	-711.31386	-273.55236	943.97278	-755.49881	-126.48449	898.36113	-1259.34425	-160.86733	879.24614	-854.60350	-311.77355	480.60814	-1204.17366	-196.52769	510.85075	-1223.80409	-232.67530	482.98260	-1117.54898	-225.30762	425.10139	-974.57726	-165.11427	497.35981	-909.56818	-148.64717	483.35194	-1037.10304	-243.44898	176.28908	-1210.18669	-196.69388	181.40499	-1153.02765	-179.30090	177.21624	-1232.09145	59.94370	267.29040	-885.50362	106.11006	322.35756	-939.32701	59.03379	266.03977	-956.39023	-412.02198	959.05106	769.17610	-313.94135	975.14229	989.72527	-503.16833	1033.23692	1049.02306	-575.47192	1022.93961	871.08017	-313.72290	1406.50330	832.05505	-400.10208	1490.58594	853.66295	-169.10872	1523.06122	832.09541	-326.53496	1608.43002	902.48489	-331.88511	1591.74927	773.33076	-326.27541	1369.00558	1087.37091	-378.57189	1084.14360	1180.86769	-385.42755	1069.05945	1111.68823	-300.26155	1104.31755	1153.22090	-273.31713	841.39641	1166.86157	-230.14545	852.59163	1159.15253	-235.94492	862.90024	1115.71404	-468.92803	1375.83267	677.27455	-485.86067	1048.06061	721.43959	-464.46335	1073.09326	633.67256	-532.97497	1039.82864	665.09659	-424.93443	845.42557	619.64970	-388.30589	862.89284	606.91586	-370.16945	865.34348	649.57474	-365.30678	872.57523	1093.79997	-517.13795	887.24991	772.84515	-209.79288	440.08427	1001.91772	-258.86278	440.56175	1077.53242	-301.35580	419.39472	969.05762	-499.33174	394.02699	888.51646	-574.53014	425.51151	852.81792	-557.01218	441.14494	970.78575	-124.13921	194.52398	1012.15012	-192.44411	159.74762	986.14670	-613.22868	169.43232	987.77359	-664.29588	165.85869	925.96191	-687.40280	183.88351	985.88043	-236.78894	1177.45201	-842.56447	-176.20497	156.67678	1056.94138 
59	9.700	-281.07407	1017.44904	-946.88080	-281.67658	1013.88290	-1176.15150	-36.44976	1087.27135	-1157.72507	-69.53698	1079.78294	-917.20047	-305.63452	1475.97565	-1122.37877	-188.58513	1563.23914	-1114.54933	-438.36304	1658.35892	-1099.83727	-293.10368	1686.15616	-1199.32350	-280.46616	1691.09863	-1042.49802	-172.26574	1426.56891	-1315.66284	-46.54250	1138.66676	-1336.24283	-49.94557	1131.25404	-1256.39816	-117.45115	1129.22531	-1324.27887	-60.05972	881.38855	-1357.16507	-107.38422	882.95906	-1375.34698	-131.81758	879.11743	-1336.27991	-260.80906	1488.60504	-888.71925	-313.33920	1166.00998	-835.52841	-256.25467	1222.23228	-768.14697	-243.59341	981.45432	-681.42960	-293.30963	970.40901	-697.62672	-280.40272	951.80916	-742.28432	-143.57348	900.51086	-1265.46402	-177.52972	883.65097	-860.37048	-318.15510	478.67916	-1206.43082	-203.51212	511.07311	-1227.68883	-238.22123	483.29659	-1120.60837	-261.98761	432.75478	-976.18469	-199.04814	504.21101	-912.86301	-185.52271	488.40302	-1040.47226	-245.19516	175.54226	-1210.05943	-197.80380	181.89077	-1153.64662	-181.45412	177.12826	-1232.89597	24.98895	272.50355	-894.62349	70.15017	327.34421	-950.20157	22.15502	271.10920	-965.38086	-394.21242	961.77658	758.62724	-296.87338	973.72459	986.63155	-485.71827	1031.47316	1048.29163	-559.45271	1021.86653	871.24252	-297.46572	1405.18997	830.87891	-383.42484	1489.70810	853.33908	-152.25805	1521.09360	830.21294	-309.61548	1607.43958	901.62292	-315.08442	1590.28534	772.25822	-307.91546	1367.13654	1086.09413	-359.37115	1081.98349	1179.07753	-367.09316	1067.26952	1109.85146	-281.44257	1102.33177	1150.39734	-254.05031	838.95485	1162.47696	-211.32816	850.43839	1154.52942	-217.54412	860.86273	1109.56665	-454.14139	1375.74036	677.21664	-474.85538	1047.80495	721.28143	-454.02790	1072.41371	633.10680	-522.79499	1040.68565	665.55679	-420.57381	843.72971	618.55385	-383.54607	860.14999	605.58990	-364.91920	862.08191	648.06618	-346.21677	870.95284	1090.23781	-502.83848	887.18582	772.07924	-191.77990	437.58041	991.18317	-238.74609	438.83629	1067.92664	-284.46249	418.76904	960.37582	-488.68980	394.52816	884.78012	-563.86322	427.15302	850.04517	-543.99536	442.14584	967.75169	-112.39662	189.31622	998.89305	-182.39521	156.25635	974.87198	-607.76115	171.78335	986.56776	-659.48990	169.41845	924.73206	-681.82037	188.45457	984.75471	-247.19503	1182.54456	-838.19275	-164.49215	152.62836	1045.15831 
60	9.717	-296.49555	1022.98615	-950.98442	-299.83816	1018.69553	-1179.27269	-54.69610	1090.78606	-1165.62241	-84.54661	1085.27519	-924.55673	-323.12641	1480.63705	-1122.65228	-205.78688	1567.65991	-1118.13927	-455.39616	1663.02536	-1096.79901	-312.61152	1690.56931	-1199.85260	-296.01597	1695.54214	-1043.31619	-195.10252	1431.68686	-1320.29373	-70.30288	1143.76396	-1345.72220	-71.00552	1136.70784	-1264.02214	-140.54385	1134.21814	-1330.59280	-84.74086	886.51154	-1366.55670	-132.99527	888.10562	-1382.17239	-155.47180	884.20555	-1341.90811	-270.75312	1492.76627	-890.00992	-320.55321	1173.08350	-831.03333	-260.24796	1230.16701	-763.57124	-245.25398	990.89523	-673.76381	-296.35387	980.75027	-685.81230	-287.54068	960.80673	-730.70168	-160.16333	902.90054	-1270.90324	-193.76129	889.59076	-865.13313	-323.08929	477.31724	-1208.27629	-209.15274	511.37505	-1230.45166	-242.24316	483.89534	-1123.14056	-298.58656	441.79459	-977.17506	-231.11431	510.98511	-916.02005	-221.50759	493.78719	-1042.94044	-246.42313	175.18799	-1210.14420	-198.69282	182.62299	-1153.88405	-183.10623	177.26088	-1233.46321	-11.94309	273.81266	-905.44617	32.83249	327.58278	-962.62047	-17.14992	272.59190	-974.99924	-382.53269	958.01231	766.98204	-278.25184	973.20770	984.70856	-467.73506	1029.58290	1047.46384	-542.42043	1020.98869	871.17409	-281.08761	1404.03625	830.06363	-366.53809	1488.90778	853.36678	-135.44806	1519.24026	828.56194	-291.45212	1606.28906	900.57953	-298.35979	1589.22470	771.51253	-289.45047	1365.31693	1085.12718	-340.25280	1079.72649	1177.15828	-348.48942	1065.19058	1107.93251	-262.81256	1100.17464	1147.70844	-235.27916	837.06192	1158.54637	-192.26664	848.41263	1149.82201	-199.12027	858.93311	1105.09796	-438.86345	1375.65506	677.35710	-463.95088	1047.92404	721.34628	-443.55118	1072.11662	632.55798	-512.61173	1041.97990	666.23238	-416.53713	842.40761	617.49516	-379.06464	857.68913	604.18842	-360.15984	858.96561	646.50368	-326.12587	869.44016	1086.65253	-487.75219	887.18750	771.27190	-174.05579	433.96072	980.30212	-218.80060	436.63982	1058.41812	-267.68356	417.71980	951.95389	-477.11926	394.79279	880.02968	-552.00218	428.71376	846.30554	-529.77699	443.10463	964.01031	-103.83930	182.33631	986.67976	-175.60835	151.96499	964.73907	-601.78383	174.47676	985.51048	-654.12018	173.12159	923.31017	-675.40298	193.56989	983.07404	-257.62980	1188.75687	-833.77823	-156.26563	148.27172	1034.61754 
